<svg width="50" height="20" viewBox="0 0 50 20" fill="none" xmlns="http://www.w3.org/2000/svg">
    <path d="M30.8398 9.07001C31.4979 9.45652 31.4979 10.4081 30.8398 10.7946L19.9115 17.2128C19.2449 17.6043 18.4051 17.1236 18.4051 16.3505L18.4051 3.51408C18.4051 2.74098 19.2449 2.26028 19.9115 2.6518L30.8398 9.07001Z" fill="#D0E2EA"/>
    <path d="M47.8523 9.07001C48.5104 9.45652 48.5104 10.4081 47.8523 10.7946L36.9241 17.2128C36.2574 17.6043 35.4177 17.1236 35.4177 16.3505L35.4177 3.51408C35.4177 2.74098 36.2574 2.26028 36.9241 2.6518L47.8523 9.07001Z" fill="#D0E2EA"/>
    <path d="M13.1338 9.06856C13.7919 9.45507 13.7919 10.4066 13.1338 10.7931L2.20558 17.2113C1.53894 17.6029 0.699153 17.1222 0.699153 16.3491L0.699153 9.93085L0.699153 3.51264C0.699153 2.73953 1.53894 2.25883 2.20558 2.65035L13.1338 9.06856Z" fill="#D0E2EA"/>
</svg>
